# xmcd CD database file
# Copyright (C) 1993-1998 Ti Kan
#
# Track frame offsets:
#	150
#	13197
#	28322
#	39955
#	52870
#	65727
#	76212
#	93162
#	105772
#	119495
#	137140
#	147670
#	162312
#	175005
#	193920
#	203582
#	217765
#	233880
#	247307
#	260815
#
# Disc length: 3687 seconds
#
# Revision: 1
# Processed by: cddbd v1.4b41PL1 Copyright (c) Steve Scherf et al.
# Submitted via: CDValet v3.31 - Copyright (c) 1997 Greg Leichner
#
DISCID=1e0e6514
DTITLE=Mick Lloyd's Nashville Music Machine - The Best of Count
DTITLE=ry Line Dancing [CD2 of 3)
DYEAR=1900
DGENRE=
TTITLE0=Blue
TTITLE1=Check Yes or No
TTITLE2=I Want You Bad (And That Ain't Good)
TTITLE3=A Little Less Talk and A Lot More Action
TTITLE4=Papa Loved Mama
TTITLE5=Against The Grain
TTITLE6=Livin' On Love
TTITLE7=What The Cowgirls Do
TTITLE8=Daddy's Money
TTITLE9=I Don't Even Know Your Name
TTITLE10=Sold (The Grundy County Auction Incident)
TTITLE11=Summertime Blues
TTITLE12=Wink
TTITLE13=Any Man of Mine
TTITLE14=The Big One
TTITLE15=Third Rock From The Sun
TTITLE16=Walking Away A Winner
TTITLE17=One More Last Chance
TTITLE18=The Fear Of Being Alone
TTITLE19=That Ain't No Way To Go
EXTD=
EXTT0=
EXTT1=
EXTT2=
EXTT3=
EXTT4=
EXTT5=
EXTT6=
EXTT7=
EXTT8=
EXTT9=
EXTT10=
EXTT11=
EXTT12=
EXTT13=
EXTT14=
EXTT15=
EXTT16=
EXTT17=
EXTT18=
EXTT19=
PLAYORDER=
